 http://www.pix2links.com/image/Ov7T1.jpg



*******************************************************************************
Melancholia.[2011].brrip.480p.AC3.SiNiSTER                
*******************************************************************************
Storyline

Two sisters find their already strained relationship challenged as a mysterious new planet threatens to collide into the Earth.


-------------------------------------------------------------------------------
                              General Information
-------------------------------------------------------------------------------
General
Unique ID                        : 232764612410692350178679216529960103709 (0xAF1CD56D987090E2A5739D8260206F1D)
Complete name                    : Melancholia.[2011].brrip.480p.AC3.SiNiSTER
Format                           : Matroska
File size                        : 1.38 GiB
Duration                         : 2h 9mn
Overall bit rate                 : 1 521 Kbps
Movie name                       : Melancholia.[2011].480p.Brrip.X264.Esubs.SiNiSTER
Encoded date                     : UTC 2011-11-12 12:56:36
Writing application              : mkvmerge v4.3.0 ('Escape from the Island') built on Sep  5 2010 10:30:51
Writing library                  : libebml v1.0.0 + libmatroska v1.0.0
Encoder                          : Wolfmaner
IMDB                             : http://www.imdb.com/title/tt1527186/

[img]http://www.pix2links.com/images/20349311072267311198.png[/img]

Video
ID                               : 1
Format                           : AVC
Format/Info                      : Advanced Video Codec
Format profile                   : High@L4.1
Format settings, CABAC           : Yes
Format settings, ReFrames        : 3 frames
Format settings, GOP             : M=4, N=25
Muxing mode                      : Header stripping
Codec ID                         : V_MPEG4/ISO/AVC
Duration                         : 2h 9mn
Bit rate mode                    : Variable
Bit rate                         : 1 200 Kbps
Maximum bit rate                 : 40.0 Mbps
Width                            : 720 pixels
Height                           : 400 pixels
Display aspect ratio             : 16:9
Frame rate                       : 25.000 fps
Color space                      : YUV
Chroma subsampling               : 4:2:0
Bit depth                        : 8 bits
Scan type                        : Progressive
Bits/(Pixel*Frame)               : 0.167
Stream size                      : 1.06 GiB (77%)
Title                            : SiNiSTER
Writing library                  : x264 core 116 r2074 2641b9e
Encoding settings                : cabac=1 / ref=3 / deblock=1:-1:-1 / analyse=0x3:0x113 / me=hex / subme=7 / psy=1 / psy_rd=1.00:0.15 / mixed_ref=1 / me_range=16 / chroma_me=1 / trellis=1 / 8x8dct=1 / cqm=0 / deadzone=21,11 / fast_pskip=1 / chroma_qp_offset=-3 / threads=1 / sliced_threads=0 / slices=4 / nr=0 / decimate=1 / interlaced=0 / bluray_compat=1 / constrained_intra=0 / bframes=3 / b_pyramid=1 / b_adapt=1 / b_bias=0 / direct=1 / weightb=1 / open_gop=1 / weightp=1 / keyint=25 / keyint_min=2 / scenecut=40 / intra_refresh=0 / rc_lookahead=25 / rc=2pass / mbtree=1 / bitrate=1200 / ratetol=1.0 / qcomp=0.60 / qpmin=0 / qpmax=69 / qpstep=4 / cplxblur=20.0 / qblur=0.5 / vbv_maxrate=40000 / vbv_bufsize=30000 / nal_hrd=vbr / ip_ratio=1.40 / aq=1:1.00
Language                         : English



[img]http://www.pix2links.com/images/97620169951974180344.png[/img]

Audio
Audio
ID                               : 2
Format                           : AC-3
Format/Info                      : Audio Coding 3
Mode extension                   : CM (complete main)
Muxing mode                      : Header stripping
Codec ID                         : A_AC3
Duration                         : 2h 9mn
Bit rate mode                    : Constant
Bit rate                         : 320 Kbps
Channel(s)                       : 2 channels
Channel positions                : Front: L R
Sampling rate                    : 48.0 KHz
Bit depth                        : 16 bits
Compression mode                 : Lossy
Stream size                      : 297 MiB (21%)




Video Source : Melancholia.2011.720p.BluRay.x264-LEVERAGE   
Audio Source:  Melancholia.2011.720p.BluRay.x264-LEVERAGE




Greets:
DarkScene,HDScene,Noir,Chaos,CrEwSaDe,ETRG,blackjesus,ViSiON,HDLiTE,UnKnOwN,EP1C,IMAGiNE,
FLAWL3SS,Rx,ELEKTRI4KA,CiNEDUB,BDK,SAFCuk009,HiVE-CM8,LEVERAGE..... and everybody else we 
respect.. u know who u are

-------------------------------------------------------------------------------
                               Post Information
-------------------------------------------------------------------------------
Encoded by...........: SiNiSTER & TDT its a combined release of Both the groups.
 
Have sumthing to offer..looking for suppliers... cammers,cams,screeners, audio
supplier.. and any pre retail DVD/BR any RC...if u can provide any email us at
sinister@hushmail.me


Release Notes

source was decent. made a script to resize, medium denoiser, adjust coloring slightly
and sharpen.. then jus converted DTS to AC3 and remuxed to my encode....enjoy

-------------------------------------------------------------------------------
                                 ScreenShots
------------------------------------------------------------------------------- 
http://img444.imageshack.us/img444/7036/vlcsnap2011111218h00m11.png
 
http://img714.imageshack.us/img714/4157/vlcsnap2011111218h00m39.png
 
http://img3.imageshack.us/img3/9762/vlcsnap2011111218h03m54.png
 
http://img24.imageshack.us/img24/7121/vlcsnap2011111218h04m23.png
 
http://img560.imageshack.us/img560/2186/vlcsnap2011111218h09m54.png
 
http://img810.imageshack.us/img810/3927/vlcsnap2011111218h11m46.png
 
http://img267.imageshack.us/img267/21/melancholia2011brrip480.jpg



Enjoy guysss :-)

-------------------------------------------------------------------------------
Generated with Cool NFO Creator - http://fly.to/coolbeans
-------------------------------------------------------------------------------
 
http://www.pix2links.com/images/33502453931372952618.gif